<svg width="32" height="32" viewBox="0 0 32 32" fill="none" xmlns="http://www.w3.org/2000/svg">
<path fill-rule="evenodd" clip-rule="evenodd" d="M14.5 3C20.8513 3 26 8.14873 26 14.5C26 15.3284 26.6716 16 27.5 16C28.3284 16 29 15.3284 29 14.5C29 6.49187 22.5081 0 14.5 0C6.49187 0 0 6.49187 0 14.5C0 22.5081 6.49187 29 14.5 29C15.3284 29 16 28.3284 16 27.5C16 26.6716 15.3284 26 14.5 26C8.14873 26 3 20.8513 3 14.5C3 8.14873 8.14873 3 14.5 3Z" fill="#606060"/>
<path d="M14.5 7.5V14.5L11 18" stroke="#606060" stroke-width="3" stroke-linecap="round" stroke-linejoin="round"/>
<rect x="19" y="19" width="13" height="3" rx="1.5" fill="#606060"/>
<rect x="19" y="24" width="13" height="3" rx="1.5" fill="#606060"/>
<rect x="19" y="29" width="13" height="3" rx="1.5" fill="#606060"/>
</svg>
