<svg width="40" height="40" viewBox="0 0 40 40" fill="none" xmlns="http://www.w3.org/2000/svg">
<g opacity="0.5">
<circle cx="20" cy="20" r="10" stroke="#606060" stroke-width="2"/>
<path d="M24.5 20C24.5 22.916 23.9069 25.5065 22.9947 27.331C22.0525 29.2153 20.936 30 20 30C19.064 30 17.9475 29.2153 17.0053 27.331C16.0931 25.5065 15.5 22.916 15.5 20C15.5 17.084 16.0931 14.4935 17.0053 12.669C17.9475 10.7847 19.064 10 20 10C20.936 10 22.0525 10.7847 22.9947 12.669C23.9069 14.4935 24.5 17.084 24.5 20Z" stroke="#606060" stroke-width="2"/>
<rect x="11" y="14" width="18" height="2" fill="#606060"/>
<rect x="11" y="24" width="18" height="2" fill="#606060"/>
<rect x="10" y="19" width="20" height="2" fill="#606060"/>
</g>
</svg>
