<svg width="16" height="16" viewBox="0 0 16 16" fill="none" xmlns="http://www.w3.org/2000/svg">
<circle opacity="0.1" cx="8" cy="8" r="8" fill="#3E3E3E"/>
<path fill-rule="evenodd" clip-rule="evenodd" d="M10.9071 6.70711C11.2976 6.31658 11.2976 5.68342 10.9071 5.29289C10.5166 4.90237 9.88342 4.90237 9.49289 5.29289L8.1001 6.68569L6.7073 5.29289C6.31678 4.90237 5.68361 4.90237 5.29309 5.29289C4.90256 5.68342 4.90256 6.31658 5.29309 6.70711L6.68588 8.0999L5.29289 9.49289C4.90237 9.88342 4.90237 10.5166 5.29289 10.9071C5.68342 11.2976 6.31658 11.2976 6.70711 10.9071L8.1001 9.51412L9.49309 10.9071C9.88361 11.2976 10.5168 11.2976 10.9073 10.9071C11.2978 10.5166 11.2978 9.88342 10.9073 9.49289L9.51431 8.0999L10.9071 6.70711Z" fill="#606060"/>
</svg>
