<svg width="32" height="24" viewBox="0 0 32 24" fill="none" xmlns="http://www.w3.org/2000/svg">
<g clip-path="url(#clip0)">
<path fill-rule="evenodd" clip-rule="evenodd" d="M0 0H36V24H0V0Z" fill="#FE0000"/>
<path fill-rule="evenodd" clip-rule="evenodd" d="M0 0H18.0797V12H0V0Z" fill="#000095"/>
<path fill-rule="evenodd" clip-rule="evenodd" d="M13.2238 8.37187L11.0066 7.9125L11.4754 10.1297L9.78789 8.625L9.08477 10.7812L8.37227 8.62969L6.68477 10.1484L7.14414 7.92656L4.93164 8.4L6.43164 6.70781L4.27539 6.00469L6.43164 5.29219L4.91289 3.61406L7.13008 4.06875L6.66133 1.85156L8.34883 3.35625L9.05196 1.2L9.76446 3.35156L11.4473 1.83281L10.9926 4.05469L13.2051 3.58125L11.7051 5.27344L13.8566 5.97656L11.7051 6.68906L13.2238 8.37187Z" fill="white"/>
<path fill-rule="evenodd" clip-rule="evenodd" d="M11.1795 8.20312L10.4764 8.57344L9.79668 8.97656L8.9998 8.94844L8.20762 8.95781L7.5373 8.53594L6.84355 8.15625L6.46855 7.45312L6.06543 6.77344L6.09355 5.98594L6.08418 5.18906L6.50605 4.52344L6.89512 3.82969L7.59355 3.45937L8.27793 3.05625L9.07012 3.08437L9.86699 3.075L10.5373 3.49687L11.2264 3.88125L11.6014 4.57969L12.0045 5.25937L11.9764 6.05156L11.9857 6.84375L11.5639 7.51406L11.1795 8.20312Z" fill="#000095"/>
<path fill-rule="evenodd" clip-rule="evenodd" d="M11.4658 6.01406C11.4802 6.34222 11.428 6.66989 11.3124 6.97733C11.1968 7.28477 11.0201 7.56561 10.793 7.80291C10.5658 8.04022 10.293 8.22908 9.99096 8.3581C9.68889 8.48712 9.36382 8.55364 9.03535 8.55364C8.70688 8.55364 8.38181 8.48712 8.07974 8.3581C7.77768 8.22908 7.50486 8.04022 7.27775 7.80291C7.05064 7.56561 6.87394 7.28477 6.7583 6.97733C6.64266 6.66989 6.59047 6.34222 6.60488 6.01406C6.63239 5.38793 6.90047 4.79657 7.35326 4.36323C7.80605 3.92989 8.40861 3.68802 9.03535 3.68802C9.66209 3.68802 10.2646 3.92989 10.7174 4.36323C11.1702 4.79657 11.4383 5.38793 11.4658 6.01406Z" fill="white"/>
</g>
<defs>
<clipPath id="clip0">
<rect width="32" height="24" fill="white"/>
</clipPath>
</defs>
</svg>
